/* XPM */
static char *XPM_icon[] = {
"12 16 17 1 6 8",
"  c None",
"s c #222222",
"S c #444444",
"r c #ff000f",
"R c #ff273f",
"g c #8ce00a",
"G c #abe05a",
"y c #ffb900",
"Y c #ffd141",
"b c #008df8",
"B c #0092ff",
"m c #6c43a5",
"M c #9a5feb",
"c c #00d7eb",
"C c #67ffef",
"w c #ffffff",
"W c #ffffff",
"            ",
"    wwwww   ",
" wwww   w   ",
"    w   w   ",
" rrrw   w   ",
"    w r w   ",
" rrrw r w   ",
"    w r w   ",
"    w r w   ",
"   ww r ww  ",
"  ww rrr ww ",
"  w rrrrr w ",
"  w rrrrr w ",
"  ww     ww ",
"   wwwwwww  ",
"            ",
};
